# Blender v2.73 (sub 0) OBJ File: ''
# www.blender.org
mtllib cube.mtl
o Plane
v -10.514692 0.000000 10.514692
v 10.514692 0.000000 10.514692
v -10.514692 0.000000 -10.514692
v 10.514692 0.000000 -10.514692
v -10.514692 0.000000 0.000000
v 0.000000 0.000000 10.514692
v 10.514692 0.000000 0.000000
v 0.000000 0.000000 -10.514692
v 0.000000 0.000000 0.000000
v -10.514692 0.000000 5.257346
v 5.257346 0.000000 10.514692
v 10.514692 0.000000 -5.257346
v -5.257346 0.000000 -10.514692
v -10.514692 0.000000 -5.257346
v -5.257346 0.000000 10.514692
v 10.514692 0.000000 5.257346
v 5.257346 0.000000 -10.514692
v 0.000000 0.000000 -5.257346
v 0.000000 0.000000 5.257346
v -5.257346 0.000000 0.000000
v 5.257346 0.000000 0.000000
v 5.257346 0.000000 5.257346
v -5.257346 0.000000 5.257346
v -5.257346 0.000000 -5.257346
v 5.257346 0.000000 -5.257346
v -10.514692 0.000000 7.886019
v 7.886019 0.000000 10.514692
v 10.514692 0.000000 -7.886019
v -7.886019 0.000000 -10.514692
v -10.514692 0.000000 -2.628673
v -2.628673 0.000000 10.514692
v 10.514692 0.000000 2.628673
v 2.628673 0.000000 -10.514692
v 0.000000 0.000000 -7.886019
v 0.000000 0.000000 2.628673
v -7.886019 0.000000 0.000000
v 2.628673 0.000000 0.000000
v -10.514692 0.000000 2.628673
v 2.628673 0.000000 10.514692
v 10.514692 0.000000 -2.628673
v -2.628673 0.000000 -10.514692
v -10.514692 0.000000 -7.886019
v -7.886019 0.000000 10.514692
v 10.514692 0.000000 7.886019
v 7.886019 0.000000 -10.514692
v 0.000000 0.000000 -2.628673
v 0.000000 0.000000 7.886019
v -2.628673 0.000000 0.000000
v 7.886019 0.000000 0.000000
v 5.257346 0.000000 2.628673
v 5.257346 0.000000 7.886019
v 2.628673 0.000000 5.257346
v 7.886019 0.000000 5.257346
v -5.257346 0.000000 2.628673
v -5.257346 0.000000 7.886019
v -7.886019 0.000000 5.257346
v -2.628673 0.000000 5.257346
v -5.257346 0.000000 -7.886019
v -5.257346 0.000000 -2.628673
v -7.886019 0.000000 -5.257346
v -2.628673 0.000000 -5.257346
v 5.257346 0.000000 -7.886019
v 5.257346 0.000000 -2.628673
v 2.628673 0.000000 -5.257346
v 7.886019 0.000000 -5.257346
v 7.886019 0.000000 -2.628673
v 2.628673 0.000000 -2.628673
v 2.628673 0.000000 -7.886019
v -2.628673 0.000000 -2.628673
v -7.886019 0.000000 -2.628673
v -7.886019 0.000000 -7.886019
v -2.628673 0.000000 7.886019
v -7.886019 0.000000 7.886019
v -7.886019 0.000000 2.628673
v 7.886019 0.000000 7.886019
v 2.628673 0.000000 7.886019
v 2.628673 0.000000 2.628673
v 7.886019 0.000000 2.628673
v -2.628673 0.000000 2.628673
v -2.628673 0.000000 -7.886019
v 7.886019 0.000000 -7.886019
v -10.514692 2.139028 10.514692
v 10.514692 2.139028 10.514692
v -10.514692 2.139028 -10.514692
v 10.514692 2.139028 -10.514692
v -10.514692 2.139028 7.886019
v 7.886019 2.139028 10.514692
v 10.514692 2.139028 -7.886019
v -7.886019 2.139028 -10.514692
v -10.514692 2.139028 -7.886019
v -7.886019 2.139028 10.514692
v 10.514692 2.139028 7.886019
v 7.886019 2.139028 -10.514692
v -7.886019 2.139028 -7.886019
v -7.886019 2.139028 7.886019
v 7.886019 2.139028 7.886019
v 7.886019 2.139028 -7.886019
vn 0.000000 0.000000 -1.000000
vn 0.000000 1.000000 0.000000
vn 0.000000 0.000000 1.000000
vn -1.000000 0.000000 0.000000
vn 1.000000 0.000000 0.000000
usemtl None
s off
f 75//1 96//1 92//1
f 34//2 8//2 41//2
f 35//2 9//2 48//2
f 32//2 7//2 49//2
f 50//2 21//2 37//2
f 51//2 22//2 52//2
f 44//2 16//2 53//2
f 54//2 20//2 36//2
f 55//2 23//2 56//2
f 47//2 19//2 57//2
f 58//2 13//2 29//2
f 59//2 24//2 60//2
f 46//2 18//2 61//2
f 62//2 17//2 33//2
f 63//2 25//2 64//2
f 40//2 12//2 65//2
f 66//2 65//2 25//2
f 49//2 66//2 63//2
f 7//2 40//2 66//2
f 67//2 64//2 18//2
f 37//2 67//2 46//2
f 21//2 63//2 67//2
f 68//2 33//2 8//2
f 64//2 68//2 34//2
f 25//2 62//2 68//2
f 69//2 61//2 24//2
f 48//2 69//2 59//2
f 9//2 46//2 69//2
f 70//2 60//2 14//2
f 36//2 70//2 30//2
f 20//2 59//2 70//2
f 45//1 93//1 85//1
f 60//2 71//2 42//2
f 24//2 58//2 71//2
f 72//2 57//2 23//2
f 31//2 72//2 55//2
f 6//2 47//2 72//2
f 73//2 56//2 10//2
f 28//3 88//3 97//3
f 15//2 55//2 73//2
f 74//2 36//2 5//2
f 56//2 74//2 38//2
f 23//2 54//2 74//2
f 75//2 53//2 22//2
f 27//2 75//2 51//2
f 3//1 84//1 89//1
f 76//2 52//2 19//2
f 39//2 76//2 47//2
f 11//2 51//2 76//2
f 77//2 37//2 9//2
f 52//2 77//2 35//2
f 22//2 50//2 77//2
f 78//2 49//2 21//2
f 53//2 78//2 50//2
f 16//2 32//2 78//2
f 79//2 48//2 20//2
f 57//2 79//2 54//2
f 19//2 35//2 79//2
f 80//2 41//2 13//2
f 61//2 80//2 58//2
f 18//2 34//2 80//2
f 81//2 45//2 17//2
f 65//2 81//2 62//2
f 12//2 28//2 81//2
f 88//2 85//2 93//2
f 94//2 89//2 84//2
f 91//2 95//2 86//2
f 83//2 92//2 96//2
f 1//4 82//4 86//4
f 29//5 89//5 94//5
f 81//4 97//4 93//4
f 42//4 90//4 84//4
f 2//3 83//3 87//3
f 43//3 91//3 82//3
f 27//4 87//4 96//4
f 73//5 95//5 91//5
f 26//1 86//1 95//1
f 4//5 85//5 88//5
f 71//3 94//3 90//3
f 44//5 92//5 83//5
f 44//1 75//1 92//1
f 80//2 34//2 41//2
f 79//2 35//2 48//2
f 78//2 32//2 49//2
f 77//2 50//2 37//2
f 76//2 51//2 52//2
f 75//2 44//2 53//2
f 74//2 54//2 36//2
f 73//2 55//2 56//2
f 72//2 47//2 57//2
f 71//2 58//2 29//2
f 70//2 59//2 60//2
f 69//2 46//2 61//2
f 68//2 62//2 33//2
f 67//2 63//2 64//2
f 66//2 40//2 65//2
f 63//2 66//2 25//2
f 21//2 49//2 63//2
f 49//2 7//2 66//2
f 46//2 67//2 18//2
f 9//2 37//2 46//2
f 37//2 21//2 67//2
f 34//2 68//2 8//2
f 18//2 64//2 34//2
f 64//2 25//2 68//2
f 59//2 69//2 24//2
f 20//2 48//2 59//2
f 48//2 9//2 69//2
f 30//2 70//2 14//2
f 5//2 36//2 30//2
f 36//2 20//2 70//2
f 4//1 45//1 85//1
f 14//2 60//2 42//2
f 60//2 24//2 71//2
f 55//2 72//2 23//2
f 15//2 31//2 55//2
f 31//2 6//2 72//2
f 26//2 73//2 10//2
f 81//3 28//3 97//3
f 43//2 15//2 73//2
f 38//2 74//2 5//2
f 10//2 56//2 38//2
f 56//2 23//2 74//2
f 51//2 75//2 22//2
f 11//2 27//2 51//2
f 29//1 3//1 89//1
f 47//2 76//2 19//2
f 6//2 39//2 47//2
f 39//2 11//2 76//2
f 35//2 77//2 9//2
f 19//2 52//2 35//2
f 52//2 22//2 77//2
f 50//2 78//2 21//2
f 22//2 53//2 50//2
f 53//2 16//2 78//2
f 54//2 79//2 20//2
f 23//2 57//2 54//2
f 57//2 19//2 79//2
f 58//2 80//2 13//2
f 24//2 61//2 58//2
f 61//2 18//2 80//2
f 62//2 81//2 17//2
f 25//2 65//2 62//2
f 65//2 12//2 81//2
f 97//2 88//2 93//2
f 90//2 94//2 84//2
f 82//2 91//2 86//2
f 87//2 83//2 96//2
f 26//4 1//4 86//4
f 71//5 29//5 94//5
f 45//4 81//4 93//4
f 3//4 42//4 84//4
f 27//3 2//3 87//3
f 1//3 43//3 82//3
f 75//4 27//4 96//4
f 43//5 73//5 91//5
f 73//1 26//1 95//1
f 28//5 4//5 88//5
f 42//3 71//3 90//3
f 2//5 44//5 83//5
