# Blender v2.73 (sub 0) OBJ File: ''
# www.blender.org
mtllib hand.mtl
o Cube.001_Cube.002
v -0.174497 -0.174497 0.198594
v -0.174497 -0.174497 -0.198594
v 0.174497 -0.174497 -0.198594
v 0.174497 -0.174497 0.198594
v -0.174497 0.174497 0.198594
v -0.174497 0.174497 -0.198594
v 0.174497 0.174497 -0.198594
v 0.174497 0.174497 0.198594
v 0.000000 0.174497 -0.198594
v 0.000000 -0.174497 -0.198594
v 0.000000 0.174497 0.198594
v 0.000000 -0.174497 0.198594
v 0.174497 -0.329171 -0.198594
v 0.174497 -0.329171 0.198594
v 0.000000 -0.329171 -0.198594
v 0.000000 -0.329171 0.198594
vn -1.000000 0.000000 0.000000
vn 0.000000 0.000000 -1.000000
vn 1.000000 0.000000 0.000000
vn 0.000000 0.000000 1.000000
vn 0.000000 1.000000 0.000000
vn 0.000000 -1.000000 0.000000
usemtl None
s off
f 6//1 2//1 1//1
f 7//2 3//2 10//2
f 8//3 4//3 3//3
f 5//4 1//4 12//4
f 12//4 16//4 14//4
f 9//5 6//5 5//5
f 7//5 9//5 11//5
f 2//6 10//6 12//6
f 11//4 12//4 4//4
f 9//2 10//2 2//2
f 15//6 13//6 14//6
f 4//3 14//3 13//3
f 3//2 13//2 15//2
f 10//1 15//1 16//1
f 5//1 6//1 1//1
f 9//2 7//2 10//2
f 7//3 8//3 3//3
f 11//4 5//4 12//4
f 4//4 12//4 14//4
f 11//5 9//5 5//5
f 8//5 7//5 11//5
f 1//6 2//6 12//6
f 8//4 11//4 4//4
f 6//2 9//2 2//2
f 16//6 15//6 14//6
f 3//3 4//3 13//3
f 10//2 3//2 15//2
f 12//1 10//1 16//1
