# Blender v2.73 (sub 0) OBJ File: 'fi3.blend'
# www.blender.org
mtllib head.mtl
o Cube_Cube.002
v -0.389701 -0.454310 0.497422
v -0.389701 -0.454310 -0.443184
v 0.550905 -0.454310 -0.443184
v 0.550905 -0.454310 0.497422
v -0.389701 0.912709 0.497422
v -0.389701 0.912709 -0.443184
v 0.550905 0.912709 -0.443184
v 0.550905 0.912709 0.497422
v -0.389701 -0.106828 0.497422
v -0.389701 -0.106828 -0.443184
v 0.550905 -0.106828 -0.443184
v 0.550905 -0.106828 0.497422
v -0.389701 -0.276792 -0.443184
v 0.550905 -0.276792 -0.443184
v 0.550905 -0.276792 0.497422
v -0.389701 -0.276792 0.497422
v -0.263522 0.912709 -0.443184
v -0.263522 -0.454310 -0.443184
v -0.263522 0.912709 0.497422
v -0.263522 -0.454310 0.497422
v -0.263522 -0.106828 0.497422
v -0.263522 -0.106828 -0.443184
v -0.263522 -0.276792 0.497422
v -0.263522 -0.276792 -0.443184
v -0.132906 0.912709 -0.443184
v -0.132906 -0.454310 0.497422
v -0.132906 -0.106828 0.497422
v -0.132906 -0.276792 0.497422
v -0.132906 -0.454310 -0.443184
v -0.132906 0.912709 0.497422
v -0.132906 -0.106828 -0.443184
v -0.132906 -0.276792 -0.443184
v 0.427973 0.912709 -0.443184
v 0.427973 -0.454310 0.497422
v 0.427973 -0.106828 0.497422
v 0.427973 -0.276792 0.497422
v 0.427973 -0.454310 -0.443184
v 0.427973 0.912709 0.497422
v 0.427973 -0.106828 -0.443184
v 0.427973 -0.276792 -0.443184
v 0.289674 -0.454310 -0.443184
v 0.289674 0.912709 0.497422
v 0.289674 -0.106828 -0.443184
v 0.289674 -0.276792 -0.443184
v 0.289674 0.912709 -0.443184
v 0.289674 -0.454310 0.497422
v 0.289674 -0.106828 0.497422
v 0.289674 -0.276792 0.497422
v -0.389701 0.566523 0.497422
v -0.389701 0.566523 -0.443184
v 0.550905 0.566523 -0.443184
v 0.550905 0.566523 0.497422
v -0.263522 0.566523 -0.443184
v -0.263522 0.566523 0.497422
v -0.132906 0.566523 0.497422
v -0.132906 0.566523 -0.443184
v 0.427973 0.566523 0.497422
v 0.427973 0.566523 -0.443184
v 0.289674 0.566523 -0.443184
v 0.289674 0.566523 0.497422
v -0.389701 0.731955 0.497422
v -0.389701 0.731955 -0.443184
v 0.550905 0.731955 -0.443184
v 0.550905 0.731955 0.497422
v -0.263522 0.731955 -0.443184
v -0.263522 0.731955 0.497422
v -0.132906 0.731955 0.497422
v -0.132906 0.731955 -0.443184
v 0.427973 0.731955 0.497422
v 0.427973 0.731955 -0.443184
v 0.289674 0.731955 -0.443184
v 0.289674 0.731955 0.497422
v -0.389701 0.912709 0.119638
v -0.389701 -0.454310 0.119638
v 0.550905 0.912709 0.119638
v 0.550905 -0.454310 0.119638
v 0.550905 -0.106828 0.119638
v -0.389701 -0.106828 0.119638
v 0.550905 -0.276792 0.119638
v -0.389701 -0.276792 0.119638
v -0.263522 0.912709 0.119638
v -0.263522 -0.454310 0.119638
v -0.132906 0.912709 0.119638
v -0.132906 -0.454310 0.119638
v 0.427973 0.912709 0.119638
v 0.427973 -0.454310 0.119638
v 0.289674 -0.454310 0.119638
v 0.289674 0.912709 0.119638
v -0.389701 0.566523 0.119638
v 0.550905 0.566523 0.119638
v 0.550905 0.731955 0.119638
v -0.389701 0.731955 0.119638
v -0.389701 0.912709 -0.007576
v 0.550905 -0.454310 -0.007576
v 0.550905 -0.106828 -0.007576
v 0.550905 -0.276792 -0.007576
v 0.550905 0.566523 -0.007576
v 0.550905 0.731955 -0.007576
v -0.389701 -0.454310 -0.007576
v 0.550905 0.912709 -0.007576
v -0.389701 -0.106828 -0.007576
v -0.389701 -0.276792 -0.007576
v -0.263522 0.912709 -0.007576
v -0.263522 -0.454310 -0.007576
v -0.132906 0.912709 -0.007576
v -0.132906 -0.454310 -0.007576
v 0.427973 0.912709 -0.007576
v 0.427973 -0.454310 -0.007576
v 0.289674 -0.454310 -0.007576
v 0.289674 0.912709 -0.007576
v -0.389701 0.566523 -0.007576
v -0.389701 0.731955 -0.007576
v -0.263522 -0.106828 0.378087
v -0.263522 -0.276792 0.378087
v -0.132906 -0.106828 0.378087
v -0.132906 -0.276792 0.378087
v 0.427973 -0.106828 0.378087
v 0.427973 -0.276792 0.378087
v 0.289674 -0.106828 0.378087
v 0.289674 -0.276792 0.378087
v 0.711787 0.566523 0.119638
v 0.711787 0.731955 0.119638
v 0.711787 0.566523 -0.007576
v 0.711787 0.731955 -0.007576
v 0.884161 0.566523 0.119638
v 0.884161 0.731955 0.119638
v 0.884161 0.566523 -0.007576
v 0.884161 0.731955 -0.007576
v 0.711787 0.919531 0.119638
v 0.711787 0.919531 -0.007576
v 0.884161 0.919531 0.119638
v 0.884161 0.919531 -0.007576
v -0.554977 0.566523 0.119638
v -0.554977 0.731955 0.119638
v -0.554977 0.566523 -0.007576
v -0.554977 0.731955 -0.007576
v -0.712196 0.566523 0.119638
v -0.712196 0.731955 0.119638
v -0.712196 0.566523 -0.007576
v -0.712196 0.731955 -0.007576
v -0.554977 0.913229 0.119638
v -0.554977 0.913229 -0.007576
v -0.712196 0.913229 0.119638
v -0.712196 0.913229 -0.007576
vn -1.000000 0.000000 0.000000
vn 0.000000 0.000000 -1.000000
vn 1.000000 0.000000 0.000000
vn 0.000000 0.000000 1.000000
vn 0.000000 -1.000000 0.000000
vn 0.000000 1.000000 0.000000
usemtl None
s off
f 13//1 2//1 99//1
f 14//2 3//2 37//2
f 15//3 4//3 76//3
f 16//4 1//4 20//4
f 37//5 3//5 94//5
f 17//6 6//6 93//6
f 49//4 9//4 21//4
f 52//3 12//3 77//3
f 51//2 11//2 39//2
f 50//1 10//1 101//1
f 9//4 16//4 23//4
f 12//3 15//3 79//3
f 11//2 14//2 40//2
f 10//1 13//1 102//1
f 22//2 24//2 13//2
f 35//1 117//1 118//1
f 53//2 22//2 10//2
f 54//4 21//4 27//4
f 25//6 17//6 103//6
f 2//5 18//5 104//5
f 23//4 20//4 26//4
f 24//2 18//2 2//2
f 28//4 26//4 46//4
f 45//6 25//6 105//6
f 55//4 27//4 47//4
f 27//4 28//4 48//4
f 31//2 32//2 24//2
f 56//2 31//2 22//2
f 18//5 29//5 106//5
f 32//2 29//2 18//2
f 35//4 36//4 15//4
f 57//4 35//4 12//4
f 7//6 33//6 107//6
f 36//4 34//4 4//4
f 39//2 40//2 44//2
f 58//2 39//2 43//2
f 41//5 37//5 108//5
f 40//2 37//2 41//2
f 44//2 41//2 29//2
f 29//5 41//5 109//5
f 59//2 43//2 31//2
f 43//2 44//2 32//2
f 48//3 120//3 119//3
f 60//4 47//4 35//4
f 33//6 45//6 110//6
f 48//4 46//4 34//4
f 72//4 60//4 57//4
f 71//2 59//2 56//2
f 70//2 58//2 59//2
f 69//4 57//4 52//4
f 68//2 56//2 53//2
f 67//4 55//4 60//4
f 66//4 54//4 55//4
f 65//2 53//2 50//2
f 62//1 50//1 111//1
f 63//2 51//2 58//2
f 64//3 52//3 90//3
f 61//4 49//4 54//4
f 5//4 61//4 66//4
f 8//3 64//3 91//3
f 7//2 63//2 70//2
f 6//1 62//1 112//1
f 17//2 65//2 62//2
f 19//4 66//4 67//4
f 30//4 67//4 72//4
f 25//2 68//2 65//2
f 38//4 69//4 64//4
f 33//2 70//2 71//2
f 45//2 71//2 68//2
f 42//4 72//4 69//4
f 73//1 92//1 61//1
f 75//3 91//3 98//3
f 97//5 123//5 121//5
f 92//1 89//1 49//1
f 85//6 88//6 42//6
f 84//5 87//5 46//5
f 87//5 86//5 34//5
f 75//6 85//6 38//6
f 82//5 84//5 26//5
f 88//6 83//6 30//6
f 74//5 82//5 20//5
f 83//6 81//6 19//6
f 78//1 80//1 16//1
f 77//3 79//3 96//3
f 89//1 78//1 9//1
f 90//3 77//3 95//3
f 81//6 73//6 5//6
f 86//5 76//5 4//5
f 79//3 76//3 94//3
f 80//1 74//1 1//1
f 96//3 94//3 3//3
f 97//3 95//3 11//3
f 95//3 96//3 14//3
f 98//3 97//3 51//3
f 100//3 98//3 63//3
f 93//1 112//1 92//1
f 112//6 136//6 134//6
f 107//6 110//6 88//6
f 106//5 109//5 87//5
f 109//5 108//5 86//5
f 100//6 107//6 85//6
f 104//5 106//5 84//5
f 110//6 105//6 83//6
f 99//5 104//5 82//5
f 105//6 103//6 81//6
f 101//1 102//1 80//1
f 111//1 101//1 78//1
f 103//6 93//6 73//6
f 108//5 94//5 76//5
f 102//1 99//1 74//1
f 113//4 114//4 116//4
f 119//4 120//4 118//4
f 36//6 118//6 120//6
f 47//5 119//5 117//5
f 28//6 116//6 114//6
f 23//3 114//3 113//3
f 21//5 113//5 115//5
f 27//1 115//1 116//1
f 124//2 128//2 127//2
f 98//2 124//2 123//2
f 90//4 121//4 122//4
f 91//6 122//6 124//6
f 126//3 125//3 127//3
f 124//2 130//2 132//2
f 123//5 127//5 125//5
f 121//4 125//4 126//4
f 129//6 131//6 132//6
f 122//1 129//1 130//1
f 128//3 132//3 131//3
f 126//4 131//4 129//4
f 135//2 139//2 140//2
f 92//4 134//4 133//4
f 111//2 135//2 136//2
f 89//5 133//5 135//5
f 140//1 139//1 137//1
f 134//4 138//4 137//4
f 138//1 143//1 144//1
f 133//5 137//5 139//5
f 142//6 144//6 143//6
f 140//2 144//2 142//2
f 136//3 142//3 141//3
f 134//4 141//4 143//4
f 102//1 13//1 99//1
f 40//2 14//2 37//2
f 79//3 15//3 76//3
f 23//4 16//4 20//4
f 108//5 37//5 94//5
f 103//6 17//6 93//6
f 54//4 49//4 21//4
f 90//3 52//3 77//3
f 58//2 51//2 39//2
f 111//1 50//1 101//1
f 21//4 9//4 23//4
f 77//3 12//3 79//3
f 39//2 11//2 40//2
f 101//1 10//1 102//1
f 10//2 22//2 13//2
f 36//1 35//1 118//1
f 50//2 53//2 10//2
f 55//4 54//4 27//4
f 105//6 25//6 103//6
f 99//5 2//5 104//5
f 28//4 23//4 26//4
f 13//2 24//2 2//2
f 48//4 28//4 46//4
f 110//6 45//6 105//6
f 60//4 55//4 47//4
f 47//4 27//4 48//4
f 22//2 31//2 24//2
f 53//2 56//2 22//2
f 104//5 18//5 106//5
f 24//2 32//2 18//2
f 12//4 35//4 15//4
f 52//4 57//4 12//4
f 100//6 7//6 107//6
f 15//4 36//4 4//4
f 43//2 39//2 44//2
f 59//2 58//2 43//2
f 109//5 41//5 108//5
f 44//2 40//2 41//2
f 32//2 44//2 29//2
f 106//5 29//5 109//5
f 56//2 59//2 31//2
f 31//2 43//2 32//2
f 47//3 48//3 119//3
f 57//4 60//4 35//4
f 107//6 33//6 110//6
f 36//4 48//4 34//4
f 69//4 72//4 57//4
f 68//2 71//2 56//2
f 71//2 70//2 59//2
f 64//4 69//4 52//4
f 65//2 68//2 53//2
f 72//4 67//4 60//4
f 67//4 66//4 55//4
f 62//2 65//2 50//2
f 112//1 62//1 111//1
f 70//2 63//2 58//2
f 91//3 64//3 90//3
f 66//4 61//4 54//4
f 19//4 5//4 66//4
f 75//3 8//3 91//3
f 33//2 7//2 70//2
f 93//1 6//1 112//1
f 6//2 17//2 62//2
f 30//4 19//4 67//4
f 42//4 30//4 72//4
f 17//2 25//2 65//2
f 8//4 38//4 64//4
f 45//2 33//2 71//2
f 25//2 45//2 68//2
f 38//4 42//4 69//4
f 5//1 73//1 61//1
f 100//3 75//3 98//3
f 90//5 97//5 121//5
f 61//1 92//1 49//1
f 38//6 85//6 42//6
f 26//5 84//5 46//5
f 46//5 87//5 34//5
f 8//6 75//6 38//6
f 20//5 82//5 26//5
f 42//6 88//6 30//6
f 1//5 74//5 20//5
f 30//6 83//6 19//6
f 9//1 78//1 16//1
f 95//3 77//3 96//3
f 49//1 89//1 9//1
f 97//3 90//3 95//3
f 19//6 81//6 5//6
f 34//5 86//5 4//5
f 96//3 79//3 94//3
f 16//1 80//1 1//1
f 14//3 96//3 3//3
f 51//3 97//3 11//3
f 11//3 95//3 14//3
f 63//3 98//3 51//3
f 7//3 100//3 63//3
f 73//1 93//1 92//1
f 92//6 112//6 134//6
f 85//6 107//6 88//6
f 84//5 106//5 87//5
f 87//5 109//5 86//5
f 75//6 100//6 85//6
f 82//5 104//5 84//5
f 88//6 110//6 83//6
f 74//5 99//5 82//5
f 83//6 105//6 81//6
f 78//1 101//1 80//1
f 89//1 111//1 78//1
f 81//6 103//6 73//6
f 86//5 108//5 76//5
f 80//1 102//1 74//1
f 115//4 113//4 116//4
f 117//4 119//4 118//4
f 48//6 36//6 120//6
f 35//5 47//5 117//5
f 23//6 28//6 114//6
f 21//3 23//3 113//3
f 27//5 21//5 115//5
f 28//1 27//1 116//1
f 123//2 124//2 127//2
f 97//2 98//2 123//2
f 91//4 90//4 122//4
f 98//6 91//6 124//6
f 128//3 126//3 127//3
f 128//2 124//2 132//2
f 121//5 123//5 125//5
f 122//4 121//4 126//4
f 130//6 129//6 132//6
f 124//1 122//1 130//1
f 126//3 128//3 131//3
f 122//4 126//4 129//4
f 136//2 135//2 140//2
f 89//4 92//4 133//4
f 112//2 111//2 136//2
f 111//5 89//5 135//5
f 138//1 140//1 137//1
f 133//4 134//4 137//4
f 140//1 138//1 144//1
f 135//5 133//5 139//5
f 141//6 142//6 143//6
f 136//2 140//2 142//2
f 134//3 136//3 141//3
f 138//4 134//4 143//4
